<svg xmlns="http://www.w3.org/2000/svg" style="display: none;">

    <symbol id="menu" viewBox="0 -960 960 960">
        <path d="M120-240v-80h720v80H120Zm0-200v-80h720v80H120Zm0-200v-80h720v80H120Z"/>
    </symbol>

    <symbol id="fire" viewBox="0 -960 960 960">
        <path d="M160-400q0-105 50-187t110-138q60-56 110-85.5l50-29.5v132q0 37 25 58.5t56 21.5q17 0 32.5-7t28.5-23l18-22q72 42 116 116.5T800-400q0 88-43 160.5T644-125q17-24 26.5-52.5T680-238q0-40-15-75.5T622-377L480-516 339-377q-29 29-44 64t-15 75q0 32 9.5 60.5T316-125q-70-42-113-114.5T160-400Zm320-4 85 83q17 17 26 38t9 45q0 49-35 83.5T480-120q-50 0-85-34.5T360-238q0-23 9-44.5t26-38.5l85-83Z"/>
    </symbol>

    <symbol id="settings" viewBox="0 -960 960 960">
        <path d="m370-80-16-128q-13-5-24.5-12T307-235l-119 50L78-375l103-78q-1-7-1-13.5v-27q0-6.5 1-13.5L78-585l110-190 119 50q11-8 23-15t24-12l16-128h220l16 128q13 5 24.5 12t22.5 15l119-50 110 190-103 78q1 7 1 13.5v27q0 6.5-2 13.5l103 78-110 190-118-50q-11 8-23 15t-24 12L590-80H370Zm112-260q58 0 99-41t41-99q0-58-41-99t-99-41q-59 0-99.5 41T342-480q0 58 40.5 99t99.5 41Z"/>
    </symbol>

    <symbol id="shopping-cart" viewBox="0 -960 960 960">
        <path d="M280-80q-33 0-56.5-23.5T200-160q0-33 23.5-56.5T280-240q33 0 56.5 23.5T360-160q0 33-23.5 56.5T280-80Zm400 0q-33 0-56.5-23.5T600-160q0-33 23.5-56.5T680-240q33 0 56.5 23.5T760-160q0 33-23.5 56.5T680-80ZM208-800h590q23 0 35 20.5t1 41.5L692-482q-11 20-29.5 31T622-440H324l-44 80h480v80H280q-45 0-68-39.5t-2-78.5l54-98-144-304H40v-80h130l38 80Z"/>
    </symbol>

    <symbol id="schedule" viewBox="0 -960 960 960">
        <path d="m612-292 56-56-148-148v-184h-80v216l172 172ZM480-80q-83 0-156-31.5T197-197q-54-54-85.5-127T80-480q0-83 31.5-156T197-763q54-54 127-85.5T480-880q83 0 156 31.5T763-763q54 54 85.5 127T880-480q0 83-31.5 156T763-197q-54 54-127 85.5T480-80Z"/>
    </symbol>

    <symbol id="close" viewBox="0 -960 960 960">
        <path d="m256-200-56-56 224-224-224-224 56-56 224 224 224-224 56 56-224 224 224 224-56 56-224-224-224 224Z"/>
    </symbol>

    <symbol id="arrow-right" viewBox="0 -960 960 960">
        <path d="M647-440H160v-80h487L423-744l57-56 320 320-320 320-57-56 224-224Z"/>
    </symbol>

</svg>
